<?xml version="1.0" encoding="UTF-8" standalone="no"?>
<svg
   xmlns:dc="http://purl.org/dc/elements/1.1/"
   xmlns:cc="http://creativecommons.org/ns#"
   xmlns:rdf="http://www.w3.org/1999/02/22-rdf-syntax-ns#"
   xmlns:svg="http://www.w3.org/2000/svg"
   xmlns="http://www.w3.org/2000/svg"
   xmlns:xlink="http://www.w3.org/1999/xlink"
   xmlns:sodipodi="http://sodipodi.sourceforge.net/DTD/sodipodi-0.dtd"
   xmlns:inkscape="http://www.inkscape.org/namespaces/inkscape"
   width="766.32977"
   height="700.00061"
   viewBox="0 0 191.58245 175.00016"
   id="svg2"
   version="1.1"
   inkscape:version="0.91 r13725"
   sodipodi:docname="Zimbabwe_Outline.svg">
  <metadata
     id="metadata76">
    <rdf:RDF>
      <cc:Work
         rdf:about="">
        <dc:format>image/svg+xml</dc:format>
        <dc:type
           rdf:resource="http://purl.org/dc/dcmitype/StillImage" />
        <dc:title></dc:title>
      </cc:Work>
    </rdf:RDF>
  </metadata>
  <defs
     id="defs74" />
  <sodipodi:namedview
     pagecolor="#ffffff"
     bordercolor="#666666"
     borderopacity="1"
     objecttolerance="10"
     gridtolerance="10"
     guidetolerance="10"
     inkscape:pageopacity="0"
     inkscape:pageshadow="2"
     inkscape:window-width="1600"
     inkscape:window-height="837"
     id="namedview72"
     showgrid="false"
     fit-margin-top="0"
     fit-margin-left="0"
     fit-margin-right="0"
     fit-margin-bottom="0"
     inkscape:zoom="0.81454783"
     inkscape:cx="554.08598"
     inkscape:cy="382.12386"
     inkscape:window-x="-8"
     inkscape:window-y="-8"
     inkscape:window-maximized="1"
     inkscape:current-layer="svg2" />
  <path
     style="fill:#d40000;fill-opacity:1"
     d="m 26.137316,100.00007 0,2.05713 c 0.348161,-0.008 0.858627,0.75998 1.195312,0.96582 l 0.01465,0.14111 c -0.11004,0.12522 -0.749777,0.87025 -0.637207,1.07617 1.340491,0.75335 0.939941,0.0895 1.567871,0.26318 0.10494,0.0901 0.08873,0.2049 0.148926,0.3042 0.12895,0.21287 0.280276,0.38523 0.375976,0.64161 0.20497,0.54883 0.09165,0.59574 0.609863,1.00341 0.339551,0.26692 1.064219,0.0883 1.497559,0.27002 0.07342,0.0307 0.263227,0.23528 0.344727,0.27588 0.39027,0.19404 0.455074,-0.0187 0.740234,0.41553 l 0.338867,0.0166 c 0.79293,0.43435 0.497629,0.51063 0.824219,1.23388 0.07324,0.16203 0.647605,1.10079 0.793945,1.30811 0.15975,0.0976 0.480133,-0.17827 0.675293,-0.13867 0.17657,0.0359 1.152728,0.22216 1.256348,0.32715 0.1719,0.17429 0.285691,0.88035 0.539551,1.2583 0.59954,0.0938 0.461802,-0.33825 1.465332,0.0947 0.08513,0.0364 0.216951,0.0671 0.297851,0.003 0.18758,-0.0129 0.3836,0.357 0.4375,0.48779 l -0.113769,0.26221 c 0.01544,0.0597 0.09457,0.12257 0.151367,0.13867 0.35264,-0.0543 0.902559,0.17453 0.943359,0.16553 l 0.09375,-0.0728 0.1875,0.14405 c 0.1237,-0.002 0.321485,-0.0339 0.427735,0.0205 0.5726,0.29276 0.586756,-0.0324 0.958496,0.19873 0.21731,0.053 0.320439,0.19093 0.491699,0.25293 0.12194,0.0442 0.29314,0.0163 0.41748,0.0571 0.1275,0.042 0.253545,0.15287 0.379395,0.20507 0.18733,0.0776 0.437339,-0.006 0.630859,0.005 0.26069,0.0137 0.590802,0.29003 0.857422,0.0244 0.20099,0.0598 0.45493,0.0697 0.66211,0.0518 0.22616,0.18733 0.522286,0.23763 0.750976,0.43457 0.10536,0.31469 0.335427,0.88967 0.563477,1.12012 0.33874,0.16941 1.639707,0.12017 1.998047,-0.004 0.62382,0.0161 0.568591,0.83377 0.939941,1.06689 l 0.07861,0.3291 0.241211,0.11914 c 0.0101,0.0169 0.06052,0.0895 0.06152,0.10498 0.0152,0.16113 0.0094,0.41478 0.0542,0.56543 0.10877,0.36579 0.400033,0.66461 0.356933,1.07911 l 0.473633,0.3916 -0.01709,0.0542 c 0.133,0.26334 0.125875,0.59624 0.171875,0.88134 0.05502,0.33961 0.181765,0.64129 0.251465,0.96827 0.08864,0.41499 -0.0035,2.46245 -0.03369,3.06591 -0.01831,0.36802 -0.201876,0.89103 -0.279785,1.36524 l 133.007811,0 c 0.0204,-0.0398 0.0471,-0.0995 0.0659,-0.13379 0.3725,-0.67695 0.90552,-1.30489 1.44726,-1.84814 0.17747,-0.1781 0.34204,-0.4033 0.48194,-0.61036 0.019,-0.15874 -0.0639,-0.32415 -0.008,-0.47265 0.26738,-0.70919 1.11177,-1.1053 1.55713,-1.69434 -0.20994,-0.34998 0.10431,-0.8209 0.062,-1.20996 -0.0591,-0.15633 -0.48355,-0.18692 -0.64697,-0.42383 -0.0768,-0.0977 0.0602,-0.52181 0.16503,-0.59521 0.19251,-0.0377 0.38495,-0.11419 0.56202,-0.19629 0.0508,-0.0548 0.0369,-0.25395 0.0259,-0.31885 l -0.36573,-0.50439 c -0.0412,-0.11346 0.254,-1.08833 0.3003,-1.26123 0.0765,-0.0305 0.27866,-0.13933 0.30566,-0.22803 l 0.16699,10e-4 0.0581,0.19531 c 0.0451,0.0295 0.0925,0.0835 0.10644,0.13672 0.11574,0.0556 0.25208,0.10672 0.38135,0.11572 l 0.24561,-0.12841 c 0.008,-0.3682 0.0779,-1.0709 -0.1875,-1.34082 0.34151,-0.78965 0.6853,-0.45026 1.40234,-0.6587 0.0581,-0.1914 0.6142,-0.1792 0.75244,-0.2788 l 0.0181,-0.065 c 0.0873,-0.0248 0.17481,-0.0776 0.24511,-0.13378 0.0684,-0.15419 0.0986,-0.31938 0.13428,-0.48292 0.20516,-0.93726 0.66694,-4.61511 0.97607,-5.16064 -0.0573,-0.14116 -0.0681,-0.32876 -0.0864,-0.47852 -0.54211,-0.73109 -1.07121,-0.55437 -1.47559,-0.85351 l -0.78125,-0.57813 c -0.0599,-0.0444 -0.0994,-0.14587 -0.12304,-0.21337 l 0.0425,-0.12354 c 0.13585,-0.053 0.44468,-0.40492 0.53808,-0.51611 0.0845,-0.16873 -0.073,-0.85979 -0.25586,-0.94629 l -0.14844,-0.007 c -0.37364,0.36036 -1.60032,0.83449 -2.11474,0.78809 l -0.0889,-0.0596 c -0.19946,0.0444 -0.65298,0.07 -0.8374,-0.0537 l -0.0825,-0.0952 c -0.091,-0.18277 0.36034,-1.17247 0.43164,-1.37207 -0.28244,-0.45547 -0.0112,-1.33248 -0.0112,-1.83057 0,-0.41121 -0.32048,-0.52566 -0.29688,-0.86426 0.011,-0.15853 0.0487,-0.32826 0.0806,-0.499016 l -160.235868,0 z"
     id="rect3408"
     inkscape:connector-curvature="0" />
  <path
     style="fill:#ffd200"
     d="m 50.322863,125.00007 c -0.0394,0.23982 -0.0537,0.46824 -0.002,0.65576 l 0.05518,0.0518 c 0.48634,0.0583 1.343674,-0.43632 1.737304,-0.67627 l 0.144043,0.0259 c 0.06362,0.10144 0.217512,0.18594 0.326172,0.21044 0.13217,0.0296 1.386635,0.12337 1.532225,0.0723 0.28901,-0.10145 0.52515,-0.33341 0.875,-0.31201 0.74045,0.0457 1.600928,0.45001 2.350098,0.56347 0.45787,0.0694 0.766922,-0.47737 1.275392,-0.30029 l 0.532225,0.45801 c 0.3195,0.088 0.674488,-0.12717 0.935548,-0.28516 0.26094,0.0186 0.527365,0.31986 0.677245,0.50098 0.48293,0.58361 0.604567,0.80151 0.259767,1.58154 l -0.06983,0.0591 c -0.0189,0.072 0.03233,0.19329 0.07813,0.24609 l -0.0044,0.0942 c -0.05908,0.10309 -0.208357,0.24432 -0.327637,0.27392 -0.19211,0.19871 -0.04258,0.85425 -0.08398,1.20069 -0.10422,0.87048 0.43631,1.10089 0.6416,1.77392 l -0.134765,0.36328 0.195313,0.63282 c 0.08566,0.27802 -0.339173,0.52023 -0.06445,1.10156 l -0.2334,0.19531 c -0.02872,0.34796 -0.108977,0.86557 -0.210937,1.19873 -0.0764,0.24905 -0.524578,0.39444 -0.580078,0.87256 0.10333,0.23551 0.201985,0.43923 0.325685,0.62402 0.0463,0.13345 -0.221117,0.48422 -0.291017,0.59717 -0.26348,0.42525 0.43281,0.60895 0.520507,0.9502 l -0.2749,0.51416 0.126465,0.26855 c -0.03212,0.16394 -0.4239,0.30621 -0.4209,0.42334 0.10814,0.16076 0.295625,0.46834 0.328125,0.66553 l -0.05517,0.20166 c -0.07766,0.0535 -0.436332,0.30711 -0.348632,0.45117 0.19402,0.31899 0.269285,0.7882 0.475585,1.05762 0.24348,0.31823 0.522957,0.17372 0.622557,0.6875 0.258923,0.12206 0.29557,0.27698 0.4375,0.47949 0.08006,0.1144 0.40972,0.12405 0.5376,0.16455 0.29762,0.0941 0.08061,0.49782 1.03076,0.60205 l 0.04346,0.46485 c 0.32722,0.31773 0.705765,0.74032 0.944825,1.11914 0.31242,0.49532 0.209547,0.59601 0.679197,1.08349 0.0086,0.009 0.02772,0.0898 0.03272,0.10547 l 0.452638,0.3252 c 0.10865,0.30926 0.04395,0.20175 0.299317,0.44726 0.22763,0.47533 7.5e-4,0.73093 0.08838,1.09571 0.13142,0.12788 0.337977,0.28717 0.443847,0.43212 0.13712,0.18733 0.21319,0.44407 0.34082,0.64063 0.0817,0.12585 0.263558,0.20681 0.285158,0.37402 0.0015,0.0901 -0.08981,0.22243 -0.15381,0.27783 0.0097,0.0974 0.21511,0.23117 0.364747,0.38868 l 105.603998,0 c 0.93946,-1.01604 1.88442,-2.0264 2.84717,-3.01709 0.15862,-0.1633 0.42048,-0.3548 0.65283,-0.4126 0.82038,-0.20427 0.69127,0.1861 1.31054,0.42578 0.10928,-0.61231 -0.98185,-1.49422 -1.19384,-1.98828 -0.26055,-0.6075 -0.21286,-0.68585 -0.78077,-1.13526 -0.18316,-0.44978 -0.1087,-0.42529 0.16944,-0.78906 l -0.0108,-0.15381 c -0.13293,-0.25778 -0.87213,-0.57208 -0.95703,-0.85351 0.18011,-0.23754 0.22209,-0.46996 0.34326,-0.72217 0.13079,-0.27258 0.42405,-0.46579 0.62402,-0.69043 1.63963,-1.84276 1.70097,-1.89062 2.70703,-4.30029 0.23944,-0.57337 -0.39482,-2.10494 -0.46582,-2.74951 -0.0688,-0.62484 -0.0355,-1.2907 -0.0425,-1.91895 -0.003,-0.23968 0.003,-0.59806 -0.0342,-0.8208 -0.0602,-0.35808 -0.21856,-0.64411 -0.24756,-1.02344 l 5e-4,-0.0825 c 0.14685,-1.17898 0.21549,-1.11617 1.0503,-1.78515 0.54908,-0.44004 0.75157,-0.61907 0.98632,-0.68897 0.24449,-0.0728 0.52399,-0.0277 1.26709,-0.0347 0.31469,-0.003 0.64527,0.0504 0.94971,0.0381 0.63194,-0.33463 1.15528,-1.64587 1.48877,-2.29736 l -133.007802,0 z"
     id="rect3406"
     inkscape:connector-curvature="0" />
  <path
     style="fill:#006400;fill-opacity:1"
     d="m 67.062121,150.00007 c 0.11688,0.12302 0.200392,0.2601 0.124512,0.40771 l -0.06983,0.0728 c -0.08589,0.007 -0.234015,0.0621 -0.291015,0.13134 -0.0342,0.0715 -0.01,0.20661 0.03076,0.27051 l 0.110353,0.0684 0.282227,0.005 0.140625,0.085 0.06299,0.12256 c -0.01835,0.19011 -0.41953,0.32274 -0.44873,0.60303 l 0.23877,0.26855 c 0.1165,0.0587 0.382237,-0.0532 0.477537,-0.11377 l 0.103028,0.0381 -0.0088,0.10059 -0.13574,0.0864 -0.02003,0.13037 c 0.81862,2.06955 1.38723,0.73247 2.0791,1.396 1.03908,-0.14216 0.917737,0.097 1.666017,0.24561 0.24817,0.0492 0.493875,0.0343 0.742675,0.11621 0.18606,0.0612 0.389558,0.18535 0.577638,0.22705 0.26309,0.0581 0.426737,-0.16997 0.619627,-0.20557 0.23893,-0.0443 0.558665,-0.0228 0.805178,-0.0332 0.14762,-0.006 0.23802,-0.11773 0.44824,-0.0947 l 1.254395,0.13721 c 0.23563,0.0258 0.437625,0.30874 0.657715,0.27734 0.0597,-0.0721 0.188592,-0.15984 0.283692,-0.17334 1.25789,0.93336 0.606623,0.55406 2.056153,0.92529 l 0.168945,0.18946 c 0.36516,-0.032 0.727805,0.48519 0.989745,0.45849 0.69858,-0.0712 1.031612,-0.61423 1.178712,-0.62793 l 0.200698,0.0596 c 0.1657,-0.0192 0.297325,-0.20361 0.319825,-0.35742 l 0.09473,-0.0503 c 0.33341,-0.006 0.562187,0.15393 0.770507,0.40918 0.05679,0.006 0.391465,0.0317 0.422365,0.0464 0.29977,0.14205 0.771005,0.12689 0.878905,0.21679 0.20667,0.17215 0.314475,0.59002 0.513185,0.65772 0.94762,0.32216 2.186003,0.6002 2.882813,1.3667 l 0.0625,-0.0112 c 0.33038,0.0393 0.69737,0.0355 1.01953,0.0928 0.19416,0.0345 0.263205,0.20426 0.402345,0.30518 0.29293,0.21275 0.559837,0.20971 0.884277,0.31836 0.46964,0.0543 0.82307,0.26534 1.2583,0.33984 0.51607,0.0884 0.893005,-0.21531 1.401855,-0.0127 l 0,-0.0991 c 0.06729,0.0319 0.213675,0.322 0.421875,0.42774 l 0.0166,0.0474 c 0.64356,0.11536 1.087125,0.18086 1.441405,0.7627 -0.85782,0.43903 -1.572472,2.5902 -1.328612,3.46093 0.37579,1.3415 0.842787,2.12988 2.125487,2.80469 0.29116,0.15316 0.629703,0.16414 0.911133,0.34717 0.35391,-0.0924 0.674865,0.11749 0.970215,0.063 0.49936,-0.0923 1.0509,-0.29557 1.52295,-0.48731 0.0159,-0.006 0.05496,10e-4 0.07226,0.002 0.65798,0.63534 0.48245,1.23823 1.26123,1.90039 0.542362,0.46129 1.055862,0.91209 1.399892,1.53174 l 0.0161,0.0596 c 0.20124,0.0235 0.35712,0.0937 0.45752,-0.14697 0.64659,-0.10055 1.51111,-0.7548 2.37842,-0.59619 0.25031,0.0457 0.91157,0.35124 1.1333,0.18554 0.16853,-0.12143 0.18764,-0.38246 0.26464,-0.56396 0.0492,-0.0191 1.052,-0.27839 1.0669,-0.27539 0.26094,0.0543 0.46567,0.39095 0.74267,0.32275 0.41488,-0.53795 0.37337,-0.47794 0.98682,-0.7251 0.22414,0.0526 0.39695,0.21489 0.60059,0.31299 0.70984,-0.0392 0.94565,0.0885 1.63525,0.10352 0.22615,0.005 0.58885,-0.1238 0.7959,0.0132 0.44157,0.29193 0.817,0.52147 1.30371,0.7251 0.55464,0.23198 0.38509,-0.25756 1.18359,0.45215 l 0.0669,0.0498 0.0547,-0.0161 c 1.88792,7.5e-4 0.73451,0.0576 1.94043,0.6665 0.39084,0.19744 0.87952,0.23194 1.30566,0.36084 0.072,0.18859 0.15905,0.37184 0.23975,0.55664 l 0.19629,0.0806 c 0.66733,-0.15457 1.12655,0.41599 1.64501,0.78369 0.24058,0.17062 0.436,0.4134 0.68897,0.58594 l 0.2168,0.0229 c 0.16267,-0.11257 0.53008,-0.29588 0.72119,-0.32568 0.21996,-0.0344 1.24184,-0.10813 1.48242,-0.0781 0.86971,0.48216 1.26132,1.96841 2.0874,1.30664 l 0.98194,0.0708 c 0.0141,-0.008 0.046,-0.0329 0.0615,-0.0337 0.65317,-0.0366 1.27787,-0.10501 1.90625,-0.2998 0.44169,-0.13673 0.89134,-0.44959 1.33935,-0.51319 0.61105,-0.0868 1.0583,0.39415 1.79444,0.21973 0.093,-0.022 0.21029,-0.0698 0.28369,-0.13623 0.50114,-0.0452 1.01131,0.10214 1.44238,0.3584 l 0.15332,-0.0366 c 0.61712,-0.94914 1.02717,-0.35528 1.89258,-0.38868 0.0274,-0.001 0.0819,-0.0418 0.10986,-0.0508 0.59347,-0.20111 1.21925,-0.18849 1.7959,-0.36621 0.66418,-0.20464 1.10983,-0.28268 1.77881,-0.10156 0.0678,0.0183 0.39503,0.11712 0.44483,0.12012 0.13419,0.007 0.31158,-0.0613 0.4497,-0.0703 0.25537,-0.0181 0.54712,0.0874 0.81299,0.0884 l 0.47119,0.32666 c 0.27333,-0.0878 0.59765,0.23449 0.82178,0.33985 0.18379,0.0865 0.39399,-0.12487 0.58789,-0.0723 0.36212,0.0981 1.54591,0.60489 1.8916,0.54639 0.50643,-0.0859 1.25705,-0.54396 1.75781,-0.46436 0.47116,0.075 0.68562,0.43323 0.95313,0.78321 0.28952,0.37875 1.25535,-0.12107 1.54639,0.0845 0.44586,0.31495 0.52367,1.01349 1.26855,1.47705 l 5e-4,0.001 c 0.78738,-0.52011 1.51213,-0.96588 2.16162,-1.646 l 1.72071,-1.80176 c 0.5568,-0.58298 1.09772,-1.18244 1.65185,-1.76806 2.19162,-2.3167 4.35402,-4.67283 6.51465,-7.01611 1.88981,-2.04943 3.79676,-4.08183 5.69189,-6.13721 2.02578,-2.19712 4.02276,-4.43279 6.05518,-6.63086 l -105.603997,0 z"
     id="green_stripes"
     inkscape:connector-curvature="0" />
  <path
     style="fill:#d40000;fill-opacity:1"
     d="m 52.482043,50.000071 c -0.566297,0.43068 -1.18892,0.781638 -1.619141,1.360353 -1.27637,1.716657 -2.492144,3.404622 -3.916504,5.003905 -0.0131,0.01468 -0.07254,0.2301 -0.08154,0.26172 0.09788,0.26195 0.173825,0.665472 0.140625,0.946777 -0.45674,0.465088 -1.150973,0.807385 -1.536133,1.307128 -0.16215,0.210217 -1.03063,1.52754 -1.19873,1.675782 l -0.647461,-0.285645 c -0.47836,0.09436 -0.714909,0.59931 -1.244629,0.307128 -0.49089,0.08829 -1.220725,0.360007 -1.660645,0.59375 -0.11548,-0.04313 -0.24887,-0.06597 -0.37207,-0.06787 l -0.359863,0.197265 c -0.18062,0.0092 -0.550832,-0.120593 -0.738282,-0.166503 -0.24765,0.15292 -0.04515,0.443865 -0.196289,0.660155 -0.19492,-0.05793 -0.567474,0.228013 -0.697754,0.35791 -0.13053,-0.01505 -0.420808,-0.06129 -0.531738,-0.1416 -1.39741,0.188585 -1.6749,1.343478 -2.05664,1.494628 -0.78345,-0.175435 -0.671237,-0.61959 -1.713868,-0.466798 -0.1237,-0.08993 -0.295105,-0.188595 -0.447265,-0.220215 0.0058,-0.199845 -0.05297,-0.446185 -0.134766,-0.62744 -0.1748,-0.05945 -0.358897,-0.09458 -0.480957,-0.245605 -0.04895,-0.249935 -0.103554,-0.612727 -0.368164,-0.72998 -0.30344,-0.0053 -0.614502,0.002 -0.916992,-0.01612 -0.368021,-0.022 -0.539696,-0.365487 -0.958496,-0.298827 l -0.174317,-0.203125 c -0.17783,-0.03554 -0.33062,-0.08165 -0.51416,-0.04346 -0.15507,-0.17556 -0.542435,-0.427472 -0.793945,-0.399902 -0.39862,-0.648238 -0.763167,-0.161948 -1.103027,-0.271485 -0.373701,-0.12041 -0.754332,-0.446533 -1.135743,-0.135253 -0.09139,0.0052 -0.201643,-0.02753 -0.277343,-0.07813 -0.0821,-0.0051 -0.197036,0.04437 -0.256836,0.09863 l -0.124024,-0.01563 c -0.03418,-0.0565 -0.130221,-0.197223 -0.228027,-0.30956 l 0,15.458007 161.291501,0 c -0.0182,-0.03893 -0.032,-0.07365 -0.0513,-0.114257 0.0213,-0.1079 0.0902,-0.32259 0.17675,-0.40039 l 0.18262,-0.0166 0.11914,-0.17041 c 0.29167,0.13015 0.43052,0.08387 0.66162,-0.13672 0.22134,0.04262 0.58401,-0.28162 0.71631,-0.41455 l 0.0884,5e-4 0.25195,0.291017 c 0.0958,0.04908 0.47901,-0.12978 0.5791,-0.16748 1.11965,-0.422592 0.32836,-1.0671 0.47559,-1.69092 l 0.15723,-0.666015 0.24902,-0.19336 c 0.0907,0.0077 0.24979,-0.033 0.31299,-0.104002 l 0.20312,-0.453125 -0.0171,-0.106445 c -0.11295,-0.08234 -0.31064,-0.242925 -0.38134,-0.368653 l 0.0312,-0.24756 c -0.0951,-0.197947 -0.46411,-0.365422 -0.66358,-0.399412 -0.33616,-0.287 -0.42857,-1.100168 -0.30322,-1.524903 0.0478,-0.16216 0.15622,-0.314287 0.20312,-0.476562 0.0664,-0.229698 -0.11123,-0.409743 -0.16113,-0.603518 -0.13106,-0.508475 -0.17967,-0.698835 -0.11377,-1.234375 -0.0502,-0.112192 -0.14904,-0.240712 -0.24804,-0.314452 l -0.22315,-0.04248 c -0.39438,-0.417908 -0.0198,-0.977 -0.10449,-1.19873 -0.11395,-0.299138 -0.27799,-0.634065 -0.35889,-0.940918 -0.0374,-0.14179 -1e-5,-0.346587 -0.0205,-0.496095 -0.0268,-0.195167 -0.18793,-0.343877 -0.23193,-0.515137 -0.0448,-0.175685 0.0191,-0.381953 -0.002,-0.542968 -0.0351,-0.266125 -0.38002,-1.172122 0.061,-1.31543 l 0.27002,0.07276 c 0.31127,-0.251325 0.0661,-0.783745 0.34864,-1.02002 l 0.0112,-0.151855 -0.11621,-0.09473 c -0.13242,0.0017 -0.27866,-0.02343 -0.40186,-0.07276 -0.26081,-0.199215 0.071,-1.219165 0.12842,-1.43457 0.0281,-0.104985 -0.0213,-0.837435 -0.0293,-0.962403 l 0.22608,-0.399412 c 0.1695,-0.05262 0.3518,0.06642 0.51611,0.08008 0.0347,0.0029 0.42082,-0.07967 0.48242,-0.09131 -0.059,-0.294838 0.22037,-0.403118 0.0869,-0.825198 l 0.31787,-0.169432 -0.005,-0.124023 c -0.17417,-0.181255 -0.53244,-0.291955 -0.60644,-0.506347 -0.005,-0.120035 -0.006,-0.367213 0.04,-0.481935 0.0785,0.0087 0.1642,0.05225 0.2251,0.101075 l 0.18847,-0.08154 -0.14599,-0.166017 c -0.0727,-0.385145 -0.0334,-0.728458 0.0947,-1.114745 0.24576,-0.740573 0.15726,-0.4049 0.50977,-0.887695 0.14641,-0.200478 0.0247,-0.587105 0.10498,-0.836915 -0.15545,-0.289778 -0.58912,-0.683568 -0.83399,-0.890625 -0.22299,-0.0239 -0.49022,-0.01625 -0.6792,-0.151855 -0.0422,-0.07221 -0.0671,-0.149525 -0.0893,-0.226563 l -137.179191,0 z"
     id="red_stripes"
     inkscape:connector-curvature="0" />
  <path
     style="fill:#ffd200"
     d="m 82.830186,25.000071 c -0.28088,0.12245 -0.56092,0.257428 -0.811523,0.36377 -1.33999,0.568423 -2.700995,1.097555 -4.038085,1.666993 -0.18909,0.08045 -3.44354,1.39901 -3.55713,1.47705 -0.82202,0.565135 -1.9176,1.792297 -2.73584,2.262695 -0.42524,0.534402 -2.693047,1.503715 -3.492187,1.876465 -1.51859,0.708445 -3.031423,1.431755 -4.544433,2.152345 -0.37427,0.55084 -1.938367,3.019112 -2.091797,3.086912 l -0.0088,0.08887 c -0.77713,1.11712 -1.534103,2.250332 -2.291503,3.38086 -0.1643,0.245255 -0.343532,0.450682 -0.465332,0.72705 -0.12291,0.278775 -0.07106,0.555385 -0.105958,0.84668 -0.19656,1.64178 -0.239832,1.841255 -1.388182,2.965332 -0.37845,0.672018 -1.079475,1.093708 -1.680665,1.539063 l -0.04443,0.08935 -0.06494,-0.0039 c -0.03277,0.03491 -0.06485,0.07891 -0.10205,0.108887 -0.93296,0.752338 -1.853368,1.518713 -2.788088,2.269533 -0.0445,0.03574 -0.09182,0.06753 -0.137205,0.10205 l 137.179202,0 c -0.0302,-0.104735 -0.0546,-0.20907 -0.10108,-0.299805 -0.0694,-0.135718 -0.20139,-0.25451 -0.26709,-0.391113 -0.1074,-0.223117 -0.10755,-0.943355 -0.0103,-1.174317 0.20643,-0.132935 0.42194,-0.437773 0.51954,-0.657225 0.056,-0.04806 0.28183,-0.05884 0.35693,-0.06934 -0.22325,-0.66215 0.61498,-2.285547 1.15381,-2.729002 -0.20188,-0.213888 -0.87125,-0.876738 -1.09033,-0.844728 -0.1557,-0.166582 -0.0956,-0.732262 -0.0996,-0.932617 -0.0312,-1.490755 -0.15559,-2.403443 -0.7378,-3.756835 -0.23122,-0.537308 -0.44719,-1.09278 -0.69775,-1.620605 -0.099,-0.2087 -0.27869,-0.322783 -0.39404,-0.48633 -0.16962,-0.240573 -0.30645,-0.555135 -0.46241,-0.811523 -0.19301,-0.316847 -1.68293,-2.152257 -1.64843,-2.500977 0.49518,-0.393875 1.37442,-0.218305 1.87353,-0.682128 0.1036,-0.473562 0.42768,-1.019945 0.646,-1.469727 0.0558,-0.278268 0.19332,-0.572423 0.32031,-0.823243 l 0.0644,-0.04102 c 0.0502,-0.282062 0.20714,-0.527695 0.30274,-0.793945 0.18481,-0.515425 0.23404,-1.13851 0.29004,-1.678222 -0.18226,-0.11422 -1.05505,-0.099 -1.24756,-0.08545 l -0.10498,-0.06543 -0.0815,0.0171 c -0.0688,0.07956 -0.55939,0.439727 -0.65039,0.466797 -0.14583,0.03617 -0.50364,-0.214697 -0.60498,-0.299317 l -0.37304,-0.01465 -0.26075,-0.231933 -0.2456,0.03955 -0.17627,0.222655 c -0.11624,-0.05843 -0.2777,-0.09665 -0.40772,-0.09717 -0.13256,0.130537 -0.70277,0.0042 -0.95751,0.104492 -0.21364,-0.112697 -1.6286,-0.544137 -1.6504,-0.839355 0.13344,-0.550845 0.29015,-1.33818 0.24805,-1.896485 -0.0331,-0.06275 -0.43816,-0.27956 -0.99805,-0.558105 l -99.338864,0 z"
     id="yellow_stripes"
     inkscape:connector-curvature="0" />
  <path
     style="fill:#006400;fill-opacity:1"
     d="M 112.2838,5.5952189e-4 C 111.20284,0.01722952 111.08147,0.44073852 109.817,0.86188752 c -0.24462,0.08151 -0.57344,0.102176 -0.83008,0.17724598 -0.40943,0.119781 -0.85826,0.288951 -1.28906,0.323731 -0.98406,0.07924 -0.88873,-0.62209798 -1.63916,-0.52343798 -0.8577,0.112697 -0.91351,1.00623698 -1.51026,1.13183598 -0.39236,0.0826 -1.7159,0.03276 -1.95117,0.201172 -0.13812,0.09885 -0.29434,0.302107 -0.41601,0.426758 -0.19214,0.197098 -0.74384,-0.04983 -1.01465,0.0068 -0.45396,0.09486 -0.52372,0.404089 -0.79199,0.497558 -0.19454,0.06786 -0.410246,0.02936 -0.600097,0.158692 -0.5234,0.356248 -1.231815,0.876094 -1.913575,0.724121 -0.35542,0.09752 -0.529765,0.459899 -0.771485,0.697754 -0.24981,0.245823 -0.61761,0.410872 -0.90625,0.605469 -0.42195,0.284594 -2.372725,1.756973 -2.532225,1.966308 -0.27915,0.366303 -0.509522,1.201984 -0.971192,1.308106 -0.59789,-0.06723 -2.03648,-0.18567 -2.53369,0.130859 -0.08129,0.0886 -0.07835,0.21582 -0.123048,0.320801 -0.11207,0.26385 -0.305465,0.476202 -0.430175,0.726074 -0.28384,0.5683005 -0.50122,1.2209025 -1.05713,1.6069335 l -0.05273,0.178711 c 0.01555,0.155578 0.298505,0.201422 0.354005,0.360352 -0.01175,0.0862 -0.165145,0.255986 -0.223145,0.313476 -0.0557,0.146975 -0.06593,0.415234 0.0054,0.560059 l 0.231448,0.169433 0.09668,0.297364 c -0.15823,0.351945 -0.375855,0.685624 -0.526365,1.036621 -0.08398,0.1958 0.0132,0.464989 -5e-4,0.672363 -0.0163,0.247468 -0.320287,1.025039 -0.05176,1.222168 0.10624,0.02112 0.359135,0.09415 0.436035,0.180664 0.23627,0.529404 -0.808318,0.894225 -0.870118,1.985352 l 0.11084,0.196777 0.310548,0.07861 0.108887,0.132325 c -0.07413,0.578037 -0.173555,0.534756 0.128905,0.975097 0.0085,0.01228 0.0068,0.05508 0.0078,0.07031 l -0.14453,0.222656 c 0.1495,0.862061 -0.497062,0.941571 -0.584962,1.428223 -0.0572,0.316593 0.09892,0.659372 0.01173,0.954589 -0.07513,0.254234 -0.3324,0.384356 -0.4292,0.626954 -0.42448,0.148685 -0.68215,0.425884 -0.98584,0.732421 -0.28244,0.0053 -0.517338,0.353412 -0.639648,0.564454 -0.04793,0.01809 -0.104775,0.04989 -0.155275,0.05859 -0.70098,0.120921 -1.445915,0.200422 -2.131835,0.374024 -0.22557,0.05702 -0.468955,0.153847 -0.711915,0.259765 l 99.338862,0 c -1.49061,-0.741583 -4.16658,-1.952828 -4.5044,-2.103027 -1.12179,-0.498984 -2.22828,-0.87651 -3.41357,-1.219727 -0.0211,-0.0061 -0.0784,-0.05705 -0.0986,-0.07178 -0.47533,-0.0023 -0.97333,-0.28634 -1.44043,-0.375 -0.46573,-0.08842 -5.11332,0.152223 -5.91309,0.178223 -0.51884,0.01695 -2.65864,-0.606935 -3.18799,-0.736328 l -0.15233,-0.391113 c 0.0679,-0.209966 0.007,-0.43467 0.0952,-0.629394 l -0.13819,-0.143067 c 0.0105,-0.323613 -0.15722,-0.863211 -0.54199,-0.891601 -0.10713,-0.109028 -0.34493,-0.233909 -0.50342,-0.22461 l -0.1206,-0.131347 -0.14502,-0.03174 -0.0845,-0.213379 -0.20898,-0.04981 -0.10059,0.128418 -0.12646,-0.10791 -0.0205,-0.230469 -0.10889,-0.130859 -0.25586,0.01416 0.0796,-0.329102 -0.0508,-0.118652 c -0.0842,-0.0726 -0.20734,-0.158932 -0.31738,-0.187012 -0.058,-0.05331 -0.11038,-0.241093 -0.12988,-0.314453 -0.0794,0.01947 -0.22719,0.01117 -0.29639,-0.03955 l -0.36524,-0.505859 c -0.13054,0.03409 -0.31909,0.0056 -0.43798,-0.04346 -0.12409,-0.05116 -0.37953,-0.102882 -0.48438,-0.169922 -0.24817,-0.158739 -0.7345,-0.633154 -1.01416,-0.686524 -0.4427,-0.08449 -0.95417,-0.01918 -1.38232,-0.114746 -0.1361,-0.03042 -0.28055,-0.140095 -0.41602,-0.183105 -0.22375,-0.07077 -0.51349,0.04975 -0.73926,0.03027 -0.67708,-0.05831 -2.12684,-0.333723 -2.60937,-0.883301 l -0.37891,0.05274 c -0.11434,-0.08525 -0.33603,-0.159099 -0.48047,-0.119629 l -0.38476,0.05273 -0.0674,-0.142578 0.0674,-0.240723 -0.0962,-0.160644 -0.14991,-0.07275 -0.3916,0.123047 c -0.37085,-0.323675 -0.63748,-0.831793 -0.99316,-1.183106 -0.10649,-0.105046 -0.27182,-0.174932 -0.37305,-0.283203 -0.13231,-0.141411 -0.23626,-0.505256 -0.23926,-0.693847 -0.68809,-0.78914 -1.28253,-0.696621 -1.74218,-1.11377 -0.0807,-2.5e-4 -0.46345,0.02082 -0.51075,-0.0332 l 0.003,-0.181641 -0.0576,-0.03613 -0.22754,0.05469 c -0.69022,0.196877 -0.56765,0.01243 -1.1123,0.05322 -0.14836,-0.09442 -0.19145,-0.2030445 -0.28565,-0.3540045 -0.21337,0.01606 -0.7662,-0.02511 -0.92431,-0.208007 l -0.94629,0.339355 0.0347,0.1147465 c -0.25993,0.119719 -0.51533,0.260654 -0.75489,0.416992 -0.006,-0.13161 -0.0962,-0.331112 -0.19775,-0.416992 -0.0632,0.353653 -0.53664,0.439345 -0.82617,0.484375 0.004,0.188591 -0.15697,0.507785 -0.25147,0.660644 -0.3133,0.152666 -0.55891,0.395716 -0.93457,0.370606 -0.67986,-0.308811 -0.52812,-0.56742 -0.78906,-1.096192 -0.19719,-0.164811 -0.44579,-0.29712 -0.66992,-0.419433 l -12.18701,0 c -0.079,-0.8222835 -0.0216,-1.6746245 -0.0176,-2.4946295 0.0122,-2.354335 0.0583,-4.706959 0.0312,-7.05908198 -5e-4,-0.04958 -0.11735,-0.238542 -0.16845,-0.274902 -0.12029,0.161775 -0.34698,0.27056 -0.50977,0.377441 -1.02238,0.67094198 -0.95853,0.368643 -1.95068,0.328613 -0.55906,-0.02258 -0.57995,0.11308798 -1.08741,-0.161132 -0.0178,-0.0096 -0.19463,-0.275218 -0.21533,-0.304688 l -0.10986,-0.02539 c -0.28384,0.260941 -0.7516,0.76858898 -1.06592,0.91796898 l -0.18457,-0.03272 -0.0972,-0.102051 -0.0371,-0.177734 c -0.89096,-1.19168198 -1.52237,-0.71395698 -2.62304,-0.58544898 -0.28965,0.03383 -0.60635,-0.0041 -0.89942,0.01269 -0.25361,0.01461 -0.46666,0.138462 -0.70508,0.181152 -0.1748,0.03131 -1.63387,0.205578 -1.68017,0.173828 l -0.67041,-0.458496 c -0.13875,-0.09493 -0.59073,0.03948 -0.80664,-0.0249 -0.20213,-0.06027 -0.3965,-0.209089 -0.60205,-0.258789 -0.15848,-0.03823 -0.38826,-0.01426 -0.55762,-0.03418 -0.37749,-0.04448 -0.67779,-0.06244 -0.92725,-0.058589998 z"
     id="rect3404"
     inkscape:connector-curvature="0" />
  <path
     style="fill:#000000"
     d="m 26.137316,75.000071 0,24.999999 160.235834,0 c 0.0376,-0.201571 0.0673,-0.404451 0.0342,-0.592284 -0.51327,-0.11143 -1.40214,0.325028 -1.67041,-0.484862 -0.0571,-0.17252 0.0814,-0.502903 0.0884,-0.678713 0.0131,-0.32065 -0.13077,-0.65447 0.12549,-0.94336 0.0607,-0.22122 -0.12192,-0.445342 -0.23828,-0.615722 l 0.0191,-0.236328 c 0.23779,-0.256 0.53798,-0.44429 0.7998,-0.67285 0.11169,-0.09752 0.94436,-0.998695 0.99756,-1.066895 0.17292,-0.44118 -0.0595,-1.057835 -0.0249,-1.541015 0.0379,-0.528212 0.25661,-1.07782 0.36084,-1.59717 0.0785,-0.39083 0.09,-0.78504 0.20361,-1.17334 0.0315,-0.1079 0.11799,-0.228047 0.13819,-0.335937 0.0424,-0.22577 -0.041,-0.590203 -0.1543,-0.786133 -0.0825,-0.06982 -0.21948,-0.121382 -0.32471,-0.138182 -0.3785,-0.57095 -0.15862,-1.034265 -0.31054,-1.336428 l -0.28907,-0.216795 c -0.95863,-0.17978 -2.11043,0.785683 -2.88769,0.05029 -0.10562,-0.09993 -0.34455,-1.886335 -0.36865,-1.998535 l 0.0478,-0.117675 c 0.22629,-0.03984 0.45033,-0.105875 0.66992,-0.171875 0.21059,-0.26916 -0.36363,-1.551318 -0.6123,-1.864748 l -0.0152,-0.318847 c 0.11978,-0.29572 0.48956,-0.494643 0.73242,-0.672853 0.12762,-0.09333 0.4204,0.01758 0.60937,-0.101072 0.48229,-0.30306 1.27682,-1.001895 1.88623,-0.941895 0.49822,0.04908 0.85455,0.662477 1.38135,0.480467 0.27245,-0.0941 0.73481,-0.503105 0.86572,-0.770995 0.094,-0.19239 0.0795,-0.378727 0.13379,-0.565917 0.0861,-0.29687 0.65366,-1.13972 0.51074,-1.38965 -0.3429,-0.59929 -0.69401,-1.19008 -1.09863,-1.7666 -0.12902,-0.25057 -0.11956,-0.5551 -0.25439,-0.78125 -0.0796,-0.13333 -0.2555,-0.179345 -0.3169,-0.308105 0.37638,-0.501555 0.24032,-0.867825 0.0171,-1.344728 l -161.291504,0 z"
     id="black_stripe"
     inkscape:connector-curvature="0" />
  <path
     style="fill:#000000"
     d="m 72.603623,30.076244 c -0.322905,0.281312 -0.636045,0.533382 -0.916015,0.694335 -0.42524,0.534402 -2.693047,1.503715 -3.492187,1.876465 -1.51859,0.708445 -3.031423,1.431755 -4.544433,2.152345 -0.37427,0.55084 -1.938367,3.019112 -2.091797,3.086912 l -0.0088,0.08887 c -0.77713,1.11712 -1.534103,2.250332 -2.291503,3.38086 -0.1643,0.245255 -0.343532,0.450682 -0.465332,0.72705 -0.12291,0.278775 -0.07106,0.555385 -0.105958,0.84668 -0.19656,1.64178 -0.239832,1.841255 -1.388182,2.965332 -0.37845,0.672018 -1.079475,1.093708 -1.680665,1.539063 l -0.04443,0.08935 -0.06494,-0.0039 c -0.03277,0.03491 -0.06485,0.07891 -0.10205,0.108887 -0.93296,0.752338 -1.853368,1.518713 -2.788088,2.269533 -0.59979,0.48178 -1.291647,0.837307 -1.756346,1.462402 -1.27637,1.716658 -2.492144,3.404623 -3.916504,5.003905 -0.0131,0.01467 -0.07254,0.2301 -0.08154,0.26172 0.09788,0.26195 0.173825,0.665473 0.140625,0.946778 -0.45674,0.465087 -1.150973,0.807385 -1.536133,1.307127 -0.16215,0.210218 -1.03063,1.52754 -1.19873,1.675783 l -0.647461,-0.285645 c -0.47836,0.09436 -0.714909,0.59931 -1.244629,0.307127 -0.49089,0.08829 -1.220725,0.360008 -1.660645,0.59375 -0.11548,-0.04313 -0.24887,-0.06597 -0.37207,-0.06787 l -0.359863,0.197265 c -0.18062,0.0092 -0.550832,-0.120592 -0.738282,-0.166502 -0.24765,0.15292 -0.04515,0.443865 -0.196289,0.660155 -0.19492,-0.05793 -0.567474,0.228012 -0.697754,0.35791 -0.13053,-0.01505 -0.420808,-0.06129 -0.531738,-0.1416 -1.39741,0.188585 -1.6749,1.343477 -2.05664,1.494627 -0.78345,-0.175435 -0.671237,-0.61959 -1.713868,-0.466797 -0.1237,-0.08993 -0.295105,-0.188595 -0.447265,-0.220215 0.0058,-0.199845 -0.05297,-0.446185 -0.134766,-0.62744 -0.1748,-0.05945 -0.358897,-0.09458 -0.480957,-0.245605 -0.04895,-0.249935 -0.103554,-0.612728 -0.368164,-0.72998 -0.30344,-0.0053 -0.614502,0.002 -0.916992,-0.01612 -0.368021,-0.022 -0.539696,-0.365488 -0.958496,-0.298828 l -0.174317,-0.203125 c -0.17783,-0.03554 -0.33062,-0.08165 -0.51416,-0.04346 -0.15507,-0.17556 -0.542435,-0.427473 -0.793945,-0.399903 -0.39862,-0.648237 -0.763167,-0.161947 -1.103027,-0.271485 -0.373701,-0.12041 -0.754332,-0.446532 -1.135743,-0.135252 -0.09139,0.0052 -0.201643,-0.02752 -0.277343,-0.07813 -0.0821,-0.0051 -0.197036,0.04437 -0.256836,0.09863 l -0.124024,-0.01563 c -0.03416,-0.0565 -0.130211,-0.19723 -0.228017,-0.309567 l 0,42.515139 c 0.348161,-0.008 0.858627,0.75998 1.195312,0.96582 l 0.01465,0.14111 c -0.11004,0.12522 -0.749777,0.87025 -0.637207,1.07617 1.340491,0.75335 0.939941,0.0895 1.567871,0.26318 0.10494,0.0901 0.08873,0.2049 0.148926,0.3042 0.12895,0.21287 0.280276,0.38523 0.375976,0.64161 0.20497,0.54883 0.09165,0.59574 0.609863,1.00341 0.339551,0.26692 1.064219,0.0883 1.497559,0.27002 0.07342,0.0307 0.263227,0.23528 0.344727,0.27588 0.39027,0.19404 0.455074,-0.0187 0.740234,0.41553 l 0.338867,0.0166 c 0.79293,0.43435 0.497629,0.51063 0.824219,1.23388 0.07324,0.16203 0.647605,1.10079 0.793945,1.30811 0.15975,0.0976 0.480133,-0.17827 0.675293,-0.13867 0.17657,0.0359 1.152728,0.22216 1.256348,0.32715 0.1719,0.17429 0.285691,0.88035 0.539551,1.2583 0.59954,0.0938 0.461802,-0.33825 1.465332,0.0947 0.08513,0.0364 0.216951,0.0671 0.297851,0.003 0.18758,-0.0129 0.3836,0.357 0.4375,0.48779 l -0.113769,0.26221 c 0.01544,0.0597 0.09457,0.12257 0.151367,0.13867 0.35264,-0.0543 0.902559,0.17453 0.943359,0.16553 l 0.09375,-0.0728 0.1875,0.14405 c 0.1237,-0.002 0.321485,-0.0339 0.427735,0.0205 0.5726,0.29276 0.586756,-0.0324 0.958496,0.19873 0.21731,0.053 0.320439,0.19093 0.491699,0.25293 0.12194,0.0442 0.29314,0.0163 0.41748,0.0571 0.1275,0.042 0.253545,0.15287 0.379395,0.20507 0.18733,0.0776 0.437339,-0.006 0.630859,0.005 0.26069,0.0137 0.590802,0.29003 0.857422,0.0244 0.20099,0.0598 0.45493,0.0697 0.66211,0.0518 0.22616,0.18733 0.522286,0.23763 0.750976,0.43457 0.10536,0.31469 0.335427,0.88967 0.563477,1.12012 0.33874,0.16941 1.639707,0.12017 1.998047,-0.004 0.62382,0.0161 0.568591,0.83377 0.939941,1.06689 l 0.07861,0.3291 0.241211,0.11914 c 0.0101,0.0169 0.06052,0.0895 0.06152,0.10498 0.0152,0.16113 0.0094,0.41478 0.0542,0.56543 0.10877,0.36579 0.400033,0.66461 0.356933,1.07911 l 0.473633,0.3916 -0.01709,0.0542 c 0.133,0.26334 0.125875,0.59624 0.171875,0.88134 0.05502,0.33961 0.181765,0.64129 0.251465,0.96827 0.08864,0.41499 -0.0035,2.46245 -0.03369,3.06591 -0.02757,0.55413 -0.435798,1.46269 -0.281738,2.021 l 0.05517,0.0518 c 0.48634,0.0583 1.343676,-0.43632 1.737306,-0.67627 l 0.144042,0.0259 c 0.06362,0.10144 0.217513,0.18595 0.326173,0.21045 0.13217,0.0296 1.386635,0.12336 1.532225,0.0723 0.28901,-0.10145 0.52515,-0.33341 0.875,-0.31201 0.74045,0.0457 1.600927,0.45002 2.350097,0.56348 0.45787,0.0694 0.766923,-0.47738 1.275393,-0.3003 l 0.532225,0.45801 c 0.3195,0.088 0.674487,-0.12716 0.935547,-0.28515 0.26094,0.0186 0.527365,0.31985 0.677245,0.50097 0.48293,0.58361 0.604568,0.80152 0.259768,1.58155 l -0.06983,0.0591 c -0.0189,0.072 0.03233,0.19329 0.07813,0.24609 l -0.0044,0.0942 c -0.05908,0.10309 -0.208358,0.24433 -0.327638,0.27393 -0.19211,0.19871 -0.04258,0.85424 -0.08398,1.20068 -0.10422,0.87048 0.43631,1.10089 0.6416,1.77392 l -0.134765,0.36329 0.195312,0.63281 c 0.08566,0.27802 -0.339172,0.52023 -0.06445,1.10156 l -0.2334,0.19531 c -0.02872,0.34796 -0.108978,0.86557 -0.210938,1.19873 -0.0764,0.24905 -0.524577,0.39444 -0.580077,0.87256 0.10333,0.23551 0.201985,0.43924 0.325685,0.62403 0.0463,0.13345 -0.221118,0.48421 -0.291018,0.59716 -0.26348,0.42525 0.43281,0.60895 0.520508,0.9502 l -0.2749,0.51416 0.126465,0.26855 c -0.03212,0.16394 -0.4239,0.30621 -0.4209,0.42334 0.10814,0.16076 0.295625,0.46834 0.328125,0.66553 l -0.05517,0.20166 c -0.07766,0.0535 -0.436333,0.30711 -0.348633,0.45117 0.19402,0.31899 0.269285,0.7882 0.475585,1.05762 0.24348,0.31823 0.522958,0.17372 0.622558,0.6875 0.258922,0.12206 0.29557,0.27698 0.4375,0.47949 0.08006,0.1144 0.40972,0.12405 0.5376,0.16455 0.29762,0.0941 0.08061,0.49782 1.03076,0.60205 l 0.04346,0.46485 c 0.32722,0.31773 0.705765,0.74032 0.944825,1.11914 0.31242,0.49532 0.209548,0.59601 0.679198,1.08349 0.0086,0.009 0.02772,0.0898 0.03271,0.10547 l 0.452637,0.3252 c 0.10865,0.30926 0.04395,0.20175 0.299318,0.44726 0.22763,0.47533 7.5e-4,0.73093 0.08838,1.09571 0.13142,0.12788 0.337978,0.28718 0.443848,0.43213 0.13712,0.18733 0.21319,0.44406 0.34082,0.64062 0.06791,0.10461 0.204,0.17893 0.260742,0.29688 L 149.16856,87.500071 72.603623,30.076244 Z"
     id="path8"
     inkscape:connector-curvature="0" />
  <path
     style="fill:#ffffff;stroke:#000000;stroke-width:0.375;stroke-miterlimit:4;stroke-dasharray:none;stroke-opacity:1"
     d="m 69.108996,32.229076 c -0.366958,0.168413 -0.696723,0.31682 -0.913575,0.417968 -1.51859,0.708445 -3.031423,1.431755 -4.544433,2.152345 -0.37427,0.55084 -1.938367,3.019112 -2.091797,3.086912 l -0.0088,0.08887 c -0.77713,1.11712 -1.534103,2.250332 -2.291503,3.38086 -0.1643,0.245255 -0.343532,0.450682 -0.465332,0.72705 -0.12291,0.278775 -0.07106,0.555385 -0.105958,0.84668 -0.19656,1.64178 -0.239832,1.841255 -1.388182,2.965332 -0.37845,0.672018 -1.079475,1.093708 -1.680665,1.539063 l -0.04443,0.08935 -0.06494,-0.0039 c -0.03277,0.03491 -0.06485,0.07891 -0.10205,0.108887 -0.93296,0.752338 -1.853368,1.518713 -2.788088,2.269533 -0.59979,0.48178 -1.291647,0.837307 -1.756346,1.462402 -1.27637,1.716658 -2.492144,3.404623 -3.916504,5.003905 -0.0131,0.01467 -0.07254,0.2301 -0.08154,0.26172 0.09788,0.26195 0.173825,0.665473 0.140625,0.946778 -0.45674,0.465087 -1.150973,0.807385 -1.536133,1.307127 -0.16215,0.210218 -1.03063,1.52754 -1.19873,1.675783 l -0.647461,-0.285645 c -0.47836,0.09436 -0.714909,0.59931 -1.244629,0.307127 -0.49089,0.08829 -1.220725,0.360008 -1.660645,0.59375 -0.11548,-0.04313 -0.24887,-0.06597 -0.37207,-0.06787 l -0.359863,0.197265 c -0.18062,0.0092 -0.550832,-0.120592 -0.738282,-0.166502 -0.24765,0.15292 -0.04515,0.443865 -0.196289,0.660155 -0.19492,-0.05793 -0.567474,0.228012 -0.697754,0.35791 -0.13053,-0.01505 -0.420808,-0.06129 -0.531738,-0.1416 -1.39741,0.188585 -1.6749,1.343477 -2.05664,1.494627 -0.78345,-0.175435 -0.671237,-0.61959 -1.713868,-0.466797 -0.1237,-0.08993 -0.295105,-0.188595 -0.447265,-0.220215 0.0058,-0.199845 -0.05297,-0.446185 -0.134766,-0.62744 -0.1748,-0.05945 -0.358897,-0.09458 -0.480957,-0.245605 -0.04895,-0.249935 -0.103554,-0.612728 -0.368164,-0.72998 -0.30344,-0.0053 -0.614502,0.002 -0.916992,-0.01612 -0.368021,-0.022 -0.539696,-0.365488 -0.958496,-0.298828 l -0.174317,-0.203125 c -0.17783,-0.03554 -0.33062,-0.08165 -0.51416,-0.04346 -0.15507,-0.17556 -0.542435,-0.427473 -0.793945,-0.399903 -0.39862,-0.648237 -0.763167,-0.161947 -1.103027,-0.271485 -0.373701,-0.12041 -0.754332,-0.446532 -1.135743,-0.135252 -0.09139,0.0052 -0.201643,-0.02752 -0.277343,-0.07813 -0.0821,-0.0051 -0.197036,0.04437 -0.256836,0.09863 l -0.124024,-0.01563 c -0.05768,-0.09537 -0.291829,-0.44326 -0.412109,-0.45996 -0.16209,0.01025 -0.80028,-0.0048 -0.90918,0.08496 -0.16076,-0.03542 -0.368618,-0.278035 -0.440918,-0.41211 -0.0764,0.001 -0.209994,-0.04672 -0.254394,-0.114257 l 0.07813,-0.254883 -0.03076,-0.100097 c -0.52789,0.03238 -0.907158,0.517255 -1.417969,0.648925 -0.16765,0.04325 -0.391847,-0.0022 -0.554687,0.04883 -0.07691,0.02415 -0.324157,0.215127 -0.418457,0.255857 -0.20453,0.08841 -0.591651,0.06735 -0.741211,0.25 l -0.07861,0.213868 c 0.06786,0.102327 0.161712,0.20328 0.263672,0.27246 -0.17878,0.156085 -0.31665,0.561027 -0.34375,0.785157 l -0.4375,-0.14502 c -0.489428,0.177838 -0.475843,-0.165825 -0.683593,-0.111815 l -0.228028,0.205078 c -0.19098,0.07147 -0.348661,-0.14782 -0.536621,-0.1167 -0.08777,0.05578 -0.51174,0.222627 -0.54834,0.279297 l -0.04883,0.266113 c -0.51511,0.40451 -0.600149,-0.05165 -0.770019,-0.0127 l -0.1167,0.06641 c -0.51435,-0.198075 -0.815862,0.0095 -0.916992,-0.03467 l -0.145019,-0.26367 c -0.12269,-0.05541 -0.537058,-0.204152 -0.671387,-0.132812 l -0.149414,-0.20459 -0.229492,0.0029 c -0.07487,-0.02606 -0.108057,-0.237988 -0.168457,-0.316408 l 0.0791,-0.249022 -0.01855,-0.04687 c -0.05711,-0.06374 -0.247218,-0.08627 -0.324218,-0.08447 l -0.04883,-0.141115 c 0.01359,-0.11902 0.216141,-0.2945 0.306641,-0.35205 l -0.04687,-0.0054 c -0.06102,-0.04971 -0.09552,-0.216137 -0.103516,-0.287597 -0.15772,-0.074 -0.231327,-0.470285 -0.290527,-0.63965 -0.29421,-0.256638 -0.739873,0.0059 -1.030273,-0.205078 -0.01449,-0.315457 -0.569068,-0.619557 -0.784668,-0.83838 -0.29446,0.02365 -0.982462,-0.228192 -1.198242,-0.405272 l -0.304688,0.0459 c -0.0616,-0.104097 -0.06369,-0.36334 -0.05469,-0.47705 l -0.08447,-0.140137 c -0.21755,-0.03441 -0.514843,-0.01305 -0.720703,0.07031 -0.73608,1.080693 -1.2071044,0.42638 -1.8710934,0.902345 l -0.242676,-0.174317 -0.293457,0.03272 c -0.68055,-0.50746 -0.730797,0.438255 -1.310547,0.563477 -0.06376,0.01365 -0.203266,0.03367 -0.268066,-0.01465 l -0.515162,-0.383744 c -0.09341,-0.06957 -0.782971,-0.20193 -0.894531,-0.17334 l -0.215332,0.155763 -0.193848,-0.0098 -0.136719,-0.145995 c -0.304379,-0.0035 -1.006432,0.260297 -1.184082,0.171387 -0.10599,-0.177715 -0.291637,-0.407715 -0.520507,-0.407715 -0.500119,0.249173 -0.718537,-0.0942 -1.168457,-0.350587 l -0.187989,0.0029 c -0.25424,-0.122313 -0.734972,-0.65713 -0.817872,-0.67041 l -0.17675701,0.0166 c -0.09123,0.275992 -0.113058,0.559535 -0.176758,0.840332 -0.1098,0.483678 -0.706777,1.225523 -0.364257,1.734375 -0.32228,0.688585 0.332317,0.943865 0.660157,1.460938 0.17133001,0.27017 0.22108401,1.061845 0.34814401,1.40576 0.20864,0.56501 0.870603,1.197572 0.979003,1.71338 0.16779,0.210977 0.865244,0.21725 0.964844,0.435057 l 0.130371,0.452638 c 0.12826,0.207812 0.561371,0.04241 0.715821,0.278807 0.19403,0.296865 0.425064,0.602365 0.595703,0.911623 0.25316,0.458887 0.394132,1.035537 0.669922,1.489745 0.09366,0.154317 0.261754,0.26883 0.331054,0.467285 0.06236,0.178345 0.05155,0.425375 0.126953,0.59424 0.1447,0.3243 0.392579,0.668045 0.574219,0.97705 l 0.03613,0.07031 c 0.04377,0.12952 0.683406,2.157833 0.753906,2.231933 0.67537,0.71033 1.251518,1.366375 1.790528,2.183595 0.02271,0.0344 0.255202,0.390212 0.337402,0.445312 0.240579,0.16153 0.634486,0.08228 0.8364254,0.299315 0.54786,0.58892 0.540247,1.638078 1.634277,2.523928 0.12296,0.0995 0.337246,0.013 0.472656,0.0332 0.16203,0.02428 0.293751,0.13479 0.474121,0.13379 0.15646,0.35214 0.646805,0.455075 0.851075,0.776855 0.16589,0.26145 -0.137409,0.934378 0.332031,1.4292 l -0.15625,0.185545 c 0.0022,0.47723 -0.247314,0.60149 0.05518,1.15625 -0.24646,0.39906 0.330014,1.59726 0.674804,1.90918 0.0548,0.19606 0.01702,0.50315 -0.02588,0.69629 0.50936,0.1385 1.329419,0.693748 1.719239,1.014648 0.3756,0.30926 0.719287,0.645255 1.248047,0.697755 0.24867,0.28207 0.952928,1.726337 1.048828,2.071777 l 0.05859,0.0059 -0.02148,0.06348 c 0.07249,0.25474 0.275595,0.984482 0.157715,1.184082 -0.4723,0.33012 -0.882601,0.720638 -0.820801,1.355468 0.09672,0.12585 0.115064,0.359275 0.180664,0.516115 0.47034,1.12344 0.607362,0.707 1.062012,1.38623 0.30275,0.45218 0.543574,0.91471 0.842774,1.37207 -0.05339,0.08374 -0.16403,0.322115 -0.12793,0.427735 0.19624,0.17113 0.420706,0.450697 0.503906,0.702147 l 0.11377,0.0127 0.175293,0.16797 c 0.0262,0.10462 -0.02558,0.348888 -0.05078,0.449708 0.28876,0.407777 0.337735,0.927897 0.523926,1.377927 0.08177,0.19757 0.245043,0.375838 0.331543,0.572268 0.24174,0.54895 0.212739,0.981012 0.290039,1.552732 0.13394,0.15797 0.511598,0.28482 0.537598,0.46924 0.06507,0.46268 0.101507,0.964593 0.199707,1.419433 0.01442,0.06679 0.155159,0.280188 0.185059,0.362288 0.27732,0.76055 0.167669,0.79121 0.767089,1.27881 0.136361,0.11091 0.417245,0.0418 0.578125,0.12842 0.203901,0.10992 0.326994,0.29355 0.513184,0.41699 0.47456,0.31453 1.123522,0.0339 1.618652,-0.0908 0.347781,-0.0875 0.890834,0.74603 1.243164,0.96143 l 0.01465,0.14111 c -0.11004,0.12522 -0.749777,0.87025 -0.637207,1.07618 1.340491,0.75334 0.939941,0.0895 1.567871,0.26318 0.10494,0.0901 0.08873,0.2049 0.148926,0.3042 0.12895,0.21287 0.280276,0.38522 0.375976,0.6416 0.20497,0.54883 0.09165,0.59575 0.609863,1.00342 0.339551,0.26692 1.064219,0.0883 1.497559,0.27001 0.07342,0.0307 0.263227,0.23528 0.344727,0.27588 0.39027,0.19404 0.455074,-0.0187 0.740234,0.41553 l 0.338867,0.0166 c 0.79293,0.43435 0.497629,0.51064 0.824219,1.23389 0.07324,0.16203 0.647605,1.10078 0.793945,1.3081 0.15975,0.0976 0.480133,-0.17827 0.675293,-0.13867 0.17657,0.0359 1.152728,0.22216 1.256348,0.32715 0.1719,0.17429 0.285691,0.88035 0.539551,1.2583 0.59954,0.0938 0.461802,-0.33824 1.465332,0.0947 0.08513,0.0364 0.216951,0.0671 0.297851,0.003 0.18758,-0.0129 0.3836,0.357 0.4375,0.4878 l -0.113769,0.2622 c 0.01544,0.0597 0.09457,0.12257 0.151367,0.13868 0.35264,-0.0543 0.902559,0.17453 0.943359,0.16553 l 0.09375,-0.0727 0.1875,0.14404 c 0.1237,-0.002 0.321485,-0.0339 0.427735,0.0205 0.5726,0.29276 0.586756,-0.0324 0.958496,0.19873 0.21731,0.053 0.320439,0.19093 0.491699,0.25293 0.12194,0.0442 0.29314,0.0163 0.41748,0.0571 0.1275,0.042 0.253545,0.15288 0.379395,0.20508 0.18733,0.0776 0.437339,-0.006 0.630859,0.005 0.26069,0.0137 0.590802,0.29004 0.857422,0.0244 0.20099,0.0598 0.45493,0.0696 0.66211,0.0517 0.22616,0.18733 0.522286,0.23763 0.750976,0.43457 0.10536,0.31469 0.335427,0.88966 0.563477,1.12012 0.33874,0.16941 1.639707,0.12018 1.998047,-0.004 0.62382,0.0161 0.568591,0.83377 0.939941,1.06689 l 0.07861,0.32911 0.241211,0.11914 c 0.0101,0.0169 0.06052,0.0895 0.06152,0.10498 0.0152,0.16113 0.0094,0.41478 0.0542,0.56544 0.10877,0.36579 0.400033,0.66459 0.356933,1.0791 l 0.473633,0.39159 -0.01709,0.0542 c 0.133,0.26334 0.125875,0.59625 0.171875,0.88135 0.05502,0.33961 0.181765,0.64128 0.251465,0.96826 0.08864,0.41499 -0.0035,2.46246 -0.03369,3.06592 -0.02757,0.55413 -0.435798,1.46269 -0.281738,2.02099 l 0.05517,0.0518 c 0.48634,0.0583 1.343677,-0.43632 1.737307,-0.67627 l 0.144042,0.0259 c 0.06362,0.10144 0.217513,0.18595 0.326173,0.21045 0.13217,0.0296 1.386635,0.12337 1.532225,0.0723 0.28901,-0.10145 0.52515,-0.33342 0.875,-0.31202 0.74045,0.0457 1.600927,0.45002 2.350097,0.56348 0.45787,0.0694 0.766923,-0.47737 1.275393,-0.30029 l 0.532225,0.458 c 0.3195,0.088 0.674487,-0.12716 0.935547,-0.28515 0.26094,0.0186 0.527365,0.31985 0.677245,0.50098 0.48293,0.5836 0.604568,0.80151 0.259768,1.58154 l -0.06983,0.0591 c -0.0189,0.072 0.03233,0.19329 0.07813,0.24609 l -0.0044,0.0942 c -0.05908,0.10309 -0.208358,0.24433 -0.327638,0.27393 -0.19211,0.19871 -0.04258,0.85424 -0.08398,1.20068 -0.10422,0.87048 0.43631,1.1009 0.6416,1.77393 l -0.134765,0.36328 0.195312,0.63281 c 0.08566,0.27802 -0.339172,0.52023 -0.06445,1.10156 l -0.2334,0.19532 c -0.02872,0.34796 -0.108978,0.86557 -0.210938,1.19873 -0.0764,0.24906 -0.524577,0.39444 -0.580077,0.87256 0.10333,0.23551 0.201985,0.43923 0.325685,0.62402 0.0463,0.13345 -0.221118,0.48422 -0.291018,0.59717 -0.26348,0.42525 0.43281,0.60894 0.520508,0.95019 l -0.2749,0.51416 0.126465,0.26856 c -0.03212,0.16394 -0.4239,0.30621 -0.4209,0.42334 0.10814,0.16077 0.295625,0.46834 0.328125,0.66552 l -0.05517,0.20166 c -0.07766,0.0535 -0.436333,0.30712 -0.348633,0.45118 0.19402,0.31899 0.269285,0.78819 0.475585,1.05761 0.24348,0.31823 0.522958,0.17372 0.622558,0.6875 0.258922,0.12206 0.29557,0.27699 0.4375,0.4795 0.08006,0.1144 0.40972,0.12405 0.5376,0.16455 0.29762,0.0941 0.08061,0.49782 1.03076,0.60205 l 0.04346,0.46484 c 0.32722,0.31773 0.705765,0.74032 0.944825,1.11914 0.31242,0.49532 0.209548,0.59602 0.679198,1.0835 5e-4,5e-4 0.0012,0.006 0.002,0.007 L 142.80382,87.500071 69.108996,32.229076 Z"
     id="path10"
     inkscape:connector-curvature="0" />
  <g
     id="g4159"
     transform="matrix(0.4166667,0,0,0.4166667,26.13726,8.3521884e-5)">
    <path
       id="path16"
       d="m 106.52013,104.41496 55.45892,170.685 -145.19334,-105.48911 179.46888,0 L 51.0612,275.09996 Z"
       inkscape:connector-curvature="0"
       style="fill:#d40000" />
    <path
       id="path18"
       d="m 82.76956,253.65902 9.80049,-1.7819 18.17544,-0.71276 6.68215,0.62366 14.96802,2.49467 1.15823,-1.51462 0,-10.78053 1.69282,-9.26592 3.11833,-9.4441 3.20743,-7.48401 4.18749,-7.75129 6.86034,1.69281 1.7819,0 0.17819,-1.33643 -14.34435,-12.29516 -15.0571,-11.49329 -21.65017,-16.21535 -1.9601,-0.53458 -2.40557,-16.92811 -1.69281,-5.16753 -2.22739,-1.9601 -4.36566,-1.42552 -4.81115,0.17819 -2.13829,1.24733 -4.63296,1.06915 -2.40557,0.35638 -1.60372,1.87101 -0.17819,2.40557 6.68215,0.17819 1.69281,0.71276 -0.17819,0.71277 -3.8311,0.53457 -1.7819,0.53457 2.13828,1.60371 2.13829,0.80186 2.85105,1.06915 0.53457,1.871 0.26729,25.92674 -1.51462,4.00929 -0.53458,7.484 2.22739,8.99863 -5.61301,6.32577 -3.11833,5.7021 -0.53457,3.56381 -1.69281,3.47472 -0.26729,2.22739 1.15824,2.31647 4.27658,14.25526 2.22738,11.67149 z"
       inkscape:connector-curvature="0"
       style="fill:#ffcc00" />
    <path
       id="path20"
       d="m 87.95625,141.91875 c -1.71512,-10e-4 -2.53821,0.29522 -4.2375,1.21875 -1.53402,0.83372 -3.35366,1.3875 -4.59375,1.3875 -2.52086,0 -4.55625,1.80941 -4.55625,4.06875 l 0,1.5 3.675,-0.1125 c 10.53381,0.35236 0.91676,1.32338 0.15,1.4625 -2.61525,0.47448 0.58013,2.60761 3.65625,3.6375 3.31,1.1082 3.16875,0.46693 3.16875,14.98125 0,11.91728 -0.10328,13.60323 -1.0125,16.35 -1.33469,4.03214 -1.33469,10.02505 0,13.96875 0.53945,1.59395 0.98465,3.07978 0.99375,3.3 0.0091,0.22021 -1.55891,2.16933 -3.4875,4.33125 -3.4831,3.90451 -5.625,8.09502 -5.625,11.025 0,0.67457 -0.45485,1.81314 -1.0125,2.55 -1.28644,1.69986 -1.3234,4.62649 -0.075,5.7375 1.29503,1.15252 6.64202,21.79286 6.65625,25.6875 0.0052,1.42022 0.25897,1.41157 8.38125,-0.225 6.5572,-1.32121 22.05909,-1.60183 29.90625,-0.54375 3.62473,0.48874 7.84146,1.20002 9.375,1.59375 4.8299,1.24012 4.56361,1.49536 4.575,-4.33125 0.0176,-9.00872 1.65953,-17.57621 5.1375,-26.7375 1.58221,-4.16768 5.74116,-12.63086 6.84375,-13.93125 0.10899,-0.12855 1.88042,0.19882 3.9375,0.73125 4.20853,1.08928 5.3625,0.88589 5.3625,-0.9375 0,-1.04393 -4.29599,-4.62565 -25.33125,-21.09375 C 115.67002,176.44115 104.04442,167.7 103.4625,167.7 c -0.57215,0 -1.14988,-0.29398 -1.275,-0.65625 -0.12511,-0.36226 -0.79337,-4.652 -1.5,-9.54375 -0.70663,-4.89174 -1.66095,-9.72225 -2.11875,-10.725 -1.33853,-2.93186 -4.11013,-4.48635 -8.53125,-4.78125 -0.83668,-0.0558 -1.50955,-0.0747 -2.08125,-0.075 z m 0.15,1.05 c 0.55159,-0.007 1.17265,0.0164 1.93125,0.0563 6.64085,0.34856 7.89725,2.18107 9.6375,13.9875 0.67541,4.58224 1.23155,8.81953 1.2375,9.43125 0.008,0.79479 -0.9152,1.73478 -3.24375,3.3 -3.42888,2.30486 -7.85416,6.50894 -10.0125,9.4875 l -1.29375,1.7625 -0.24375,-4.14375 c -0.14228,-2.27788 -0.14224,-7.59373 0,-11.8125 0.29398,-8.71938 0.06556,-9.58019 -2.79375,-10.5375 -2.3342,-0.78151 -5.38086,-1.62176 -4.48125,-2.15625 0.98219,-0.58355 1.89125,-0.16655 4.3875,-0.7875 0.88402,-0.21989 0.83605,-0.18256 0.69375,-0.9375 -0.25632,-1.35991 -1.58407,-1.98401 -5.34375,-1.78125 -2.95258,0.15923 -3.3313,0.0826 -3.13125,-0.7125 0.40438,-1.60725 2.07544,-2.66287 4.55625,-2.90625 1.33573,-0.13105 3.28378,-0.7227 4.35,-1.3125 1.17997,-0.65272 2.09522,-0.91747 3.75,-0.9375 z m 14.86875,25.875 c 0.13955,-0.002 0.27014,-6.7e-4 0.39375,0.0188 1.70188,0.26741 50.79375,38.6494 50.79375,39.7125 0,0.42078 -0.39331,0.7576 -0.88125,0.75 -0.48795,-0.008 -12.9824,-3.5464 -27.75,-7.85625 -23.60017,-6.8876 -26.99367,-8.01264 -28.0125,-9.24375 -1.44792,-1.74962 -1.49631,-4.42124 -0.13125,-6.225 0.55766,-0.73687 1.0125,-1.64258 1.0125,-2.025 0,-1.16587 -2.50225,1.80778 -2.98125,3.54375 -0.55994,2.02931 0.48332,5.42492 2.00625,6.525 0.60181,0.43472 5.10016,1.98068 9.99375,3.43125 8.35189,2.4757 8.91282,2.74229 9.35625,4.125 1.06464,3.31971 -2.44296,7.17351 -7.51875,8.26875 -1.6368,0.35318 -3.71849,1.31682 -5.15625,2.4 -5.71555,4.30599 -9.69526,6.85028 -13.03125,8.2875 -1.96168,0.84514 -3.85655,1.80013 -4.2,2.1375 -0.34345,0.33737 -0.84423,1.87366 -1.125,3.4125 -0.59624,3.26777 -0.84912,3.76875 -1.81875,3.76875 -0.56121,0 -0.61147,-0.29348 -0.225,-1.35 0.71281,-1.94869 0.635,-4.44375 -0.15,-4.44375 -0.41522,0 -0.675,0.69431 -0.675,1.85625 0,1.01432 -0.28628,2.13149 -0.65625,2.49375 -0.55603,0.54445 -0.62617,0.14194 -0.39375,-2.3625 0.15463,-1.6664 0.08706,-3.0375 -0.15,-3.0375 -0.4548,0 -1.3483,2.52546 -1.66875,4.74375 -0.18788,1.30069 -0.19901,1.29014 -0.61875,-0.24375 -0.32779,-1.19792 -0.16867,-2.00136 0.675,-3.525 0.60175,-1.08675 1.10625,-2.66742 1.10625,-3.525 0,-1.29188 0.95217,-2.54131 5.625,-7.275 3.10192,-3.14233 6.71407,-7.04146 8.025,-8.6625 2.26832,-2.80492 2.38785,-3.10263 2.30625,-5.94375 -0.04716,-1.64198 -0.237,-3.11758 -0.4125,-3.3 -0.59248,-0.61581 -1.38194,2.5586 -1.06875,4.29375 0.28312,1.56863 -0.0094,2.10319 -3.28125,5.9625 -1.97501,2.32961 -5.3297,5.84198 -7.44375,7.81875 -3.89424,3.64135 -5.2875,5.60939 -5.2875,7.4625 0,0.56237 -0.43635,2.04949 -0.975,3.3 -0.53866,1.25051 -0.83632,2.52861 -0.675,2.83125 0.18059,0.3388 0.05193,0.3164 -0.31875,-0.0375 -0.43893,-0.41907 -0.47421,-1.19549 -0.1125,-2.86875 0.27286,-1.26223 0.38508,-2.48107 0.24375,-2.71875 -0.54382,-0.91457 -1.18136,0.2596 -1.5,2.75625 -0.18271,1.43161 -0.52514,2.48149 -0.76875,2.325 -0.73334,-0.47108 -0.50194,-3.07711 0.39375,-4.40625 0.46158,-0.68495 1.03759,-2.31669 1.275,-3.6375 0.66583,-3.7044 2.25748,-6.64479 5.79375,-10.65 1.78223,-2.01856 3.24375,-3.74541 3.24375,-3.84375 0,-0.0983 -0.47504,-1.58823 -1.05,-3.3 -1.32941,-3.95798 -1.41754,-9.98556 -0.20625,-13.65 1.27647,-3.86163 3.90637,-7.68448 8.0625,-11.71875 4.02238,-3.90443 7.84426,-6.34046 9.9375,-6.375 z m 15.01875,32.175 a 0.85942,0.57294 0 0 1 0.99375,0.5625 0.85942,0.57294 0 0 1 -1.70625,0 0.85942,0.57294 0 0 1 0.7125,-0.5625 z m 2.475,0.31875 a 0.85942,0.57294 0 0 1 0.0187,0 0.85942,0.57294 0 0 1 1.0125,0.58125 0.8625,0.575 0 0 1 -1.725,0 0.85942,0.57294 0 0 1 0.69375,-0.58125 z m 2.625,0.4875 a 0.85942,0.57294 0 0 1 0.0937,0 0.85942,0.57294 0 0 1 0.91875,0.58125 0.85942,0.57294 0 0 1 -1.70625,0 0.85942,0.57294 0 0 1 0.69375,-0.58125 z m 2.3625,0.4875 a 0.85942,0.57294 0 0 1 0.1125,0 0.85942,0.57294 0 0 1 0.91875,0.58125 0.8625,0.575 0 0 1 -1.725,0 0.85942,0.57294 0 0 1 0.69375,-0.58125 z m -6.3,0.58125 a 0.85942,0.57294 0 0 1 0.0187,0 0.85942,0.57294 0 0 1 1.0125,0.58125 0.8625,0.575 0 0 1 -1.725,0 0.85942,0.57294 0 0 1 0.69375,-0.58125 z m 2.475,0.4125 a 0.85942,0.57294 0 0 1 1.0125,0.5625 0.8625,0.575 0 0 1 -1.725,0 0.85942,0.57294 0 0 1 0.7125,-0.5625 z m 5.19375,0.20625 a 0.85942,0.57294 0 0 1 1.0125,0.5625 0.8625,0.575 0 0 1 -1.725,0 0.85942,0.57294 0 0 1 0.7125,-0.5625 z m -2.7375,0.0375 a 0.85942,0.57294 0 0 1 1.0125,0.5625 0.8625,0.575 0 0 1 -1.725,0 0.85942,0.57294 0 0 1 0.7125,-0.5625 z m 5.0625,0.58125 c 0.0764,-0.1124 3.67505,0.80266 7.9875,2.04375 l 7.8375,2.25 -1.51875,2.7 c -0.83578,1.4796 -1.89054,3.46438 -2.34375,4.40625 -0.92014,1.91232 -1.24672,1.94554 -5.9625,0.8625 -5.21536,-1.19778 -13.4594,-2.33542 -21.84375,-3.01875 l -8.0625,-0.65625 3.0375,-1.14375 c 1.67295,-0.63397 4.0783,-1.72033 5.34375,-2.41875 1.98538,-1.09574 2.7859,-1.23665 5.83125,-1.0125 4.52181,0.33281 7.56931,-0.50139 8.7,-2.38125 0.47252,-0.7856 0.91739,-1.51885 0.99375,-1.63125 z m -8.85,0.5625 a 0.85942,0.57294 0 0 1 0.0187,0 0.85942,0.57294 0 0 1 1.0125,0.58125 0.8625,0.575 0 0 1 -1.725,0 0.85942,0.57294 0 0 1 0.69375,-0.58125 z m 5.64375,0 a 0.85942,0.57294 0 0 1 0.0188,0 0.85942,0.57294 0 0 1 1.0125,0.58125 0.8625,0.575 0 0 1 -1.725,0 0.85942,0.57294 0 0 1 0.69375,-0.58125 z m -8.1,0.075 a 0.85942,0.57294 0 0 1 0.1125,0 0.85942,0.57294 0 0 1 0.91875,0.58125 0.8625,0.575 0 0 1 -1.725,0 0.85942,0.57294 0 0 1 0.69375,-0.58125 z m 5.34375,0.0937 a 0.85942,0.57294 0 0 1 1.0125,0.5625 0.8625,0.575 0 0 1 -1.725,0 0.85942,0.57294 0 0 1 0.7125,-0.5625 z m -6.5625,1.18125 a 0.85942,0.57294 0 0 1 0.0187,0 0.85942,0.57294 0 0 1 0.99375,0.58125 0.85942,0.57294 0 0 1 -1.70625,0 0.85942,0.57294 0 0 1 0.69375,-0.58125 z m 2.45625,0.0375 a 0.85942,0.57294 0 0 1 0.0937,0 0.85942,0.57294 0 0 1 0.91875,0.58125 0.85942,0.57294 0 0 1 -1.70625,0 0.85942,0.57294 0 0 1 0.69375,-0.58125 z m 2.625,0.0937 a 0.85942,0.57294 0 0 1 1.0125,0.5625 0.8625,0.575 0 0 1 -1.725,0 0.85942,0.57294 0 0 1 0.7125,-0.5625 z m 2.775,0.075 a 0.85942,0.57294 0 0 1 0.0187,0 0.85942,0.57294 0 0 1 0.99375,0.58125 0.85942,0.57294 0 0 1 -1.70625,0 0.85942,0.57294 0 0 1 0.69375,-0.58125 z m -20.30625,8.08125 c 3.43097,-0.10968 15.40915,0.75887 21.09375,1.6125 5.00312,0.7513 13.76689,2.37791 14.0625,2.60625 0.0737,0.0569 -0.67706,2.45519 -1.6875,5.325 -1.01044,2.8698 -1.93168,5.54908 -2.04375,5.94375 -0.1529,0.53852 -0.76866,0.62221 -2.475,0.35625 -8.33107,-1.29853 -32.33561,-1.18081 -41.56875,0.20625 -5.24886,0.78851 -6.01992,0.73105 -5.56875,-0.375 0.20689,-0.50717 0.64571,-2.0947 0.975,-3.54375 l 0.6,-2.64375 5.56875,-2.8875 c 3.06091,-1.59395 6.47192,-3.62551 7.575,-4.51875 1.10308,-0.89324 2.25377,-1.77966 2.56875,-1.96875 0.0985,-0.0592 0.40986,-0.0968 0.9,-0.1125 z M 77.2125,228.5625 c 0.24988,-2.5e-4 0.87476,0.28814 1.59375,0.75 0.9391,0.60325 2.13776,1.09981 2.6625,1.10625 2.61217,0.0321 4.04765,3.71214 6.2625,16.06875 0.31168,1.73885 0.67827,3.66559 0.80625,4.29375 0.20393,1.00098 -0.0823,1.22509 -2.325,1.725 -2.8348,0.63189 -3.525,0.67817 -3.525,0.3 0,-1.0612 -2.81857,-13.72098 -4.05,-18.1875 -0.8388,-3.04238 -1.5375,-5.72089 -1.5375,-5.9625 0,-0.0302 0.01466,-0.0611 0.0375,-0.075 0.01999,-0.0121 0.0393,-0.0187 0.075,-0.0188 z m 28.6125,1.85625 2.86875,0 -0.95625,1.0875 c -1.69812,1.95032 -2.50926,2.13548 -3.69375,0.825 -0.59612,-0.65954 -1.0875,-1.35757 -1.0875,-1.55625 0,-0.19867 1.292,-0.35625 2.86875,-0.35625 z m 6.075,0 2.71875,0 2.71875,0 -1.2,1.3125 c -1.4701,1.62649 -1.5674,1.62649 -3.0375,0 l -1.2,-1.3125 z m 8.2125,0 1.25625,0 c 0.68342,0 1.9386,0.14098 2.79375,0.31875 l 1.55625,0.31875 -1.44375,1.25625 c -0.79085,0.69166 -1.51333,1.25354 -1.6125,1.2375 -0.0992,-0.016 -0.7202,-0.74036 -1.36875,-1.59375 l -1.18125,-1.5375 z m 8.45625,0.375 1.25625,0.31875 c 0.69707,0.18228 2.1847,0.35085 3.3,0.35625 l 2.025,0 -1.51875,1.29375 c -0.83648,0.71267 -1.64305,1.30208 -1.8,1.3125 -0.15695,0.0104 -0.96231,-0.72048 -1.78125,-1.63125 l -1.48125,-1.65 z M 98.3625,230.9625 c 0.14571,0.004 0.2368,0.0107 0.2625,0.0375 0.10282,0.10736 -0.32105,0.82672 -0.95625,1.59375 l -1.1625,1.3875 -1.4625,-1.2 -1.4625,-1.21875 2.4375,-0.375 c 1.00211,-0.1562 1.90663,-0.23732 2.34375,-0.225 z m 2.30625,0.15 c 2.3e-4,-0.05 0.72858,0.58537 1.6125,1.40625 l 1.6125,1.5 -2.98125,0.16875 -2.98125,0.16875 1.36875,-1.575 c 0.75319,-0.86798 1.36856,-1.61881 1.36875,-1.66875 z m 18.1125,0 c 0.21365,0.0143 0.42001,0.1363 0.675,0.35625 0.44164,0.38096 1.02034,1.13774 1.29375,1.66875 0.42863,0.83243 0.29867,0.94529 -0.91875,0.9 -0.77658,-0.0289 -1.93888,-0.2041 -2.5875,-0.39375 l -1.18125,-0.3375 1.29375,-1.25625 c 0.68337,-0.66728 1.06891,-0.96137 1.425,-0.9375 z m -8.4,0.0187 c 0.56098,-0.0774 0.99717,0.34111 1.59375,1.275 0.73033,1.14325 0.70421,1.16021 -1.9875,1.14375 l -2.71875,-0.0188 1.44375,-1.3125 c 0.71477,-0.65332 1.23243,-1.02733 1.66875,-1.0875 z m 16.96875,0.1875 1.2375,1.21875 c 1.35567,1.32374 1.59491,2.13203 0.6,1.9875 -0.34853,-0.0506 -1.60653,-0.1702 -2.79375,-0.28125 l -2.15625,-0.20625 1.55625,-1.35 1.55625,-1.36875 z m -35.1375,0.675 c 0.23432,0 0.95896,0.57268 1.59375,1.275 l 1.14375,1.275 -2.45625,0.3375 c -1.35295,0.18221 -2.9111,0.42731 -3.46875,0.54375 -0.7534,0.15732 -0.52583,-0.26017 0.88125,-1.6125 1.0415,-1.00097 2.07193,-1.81875 2.30625,-1.81875 z m -3.75,0.075 c 0.1671,-0.003 0.31928,0.0163 0.45,0.0375 0.83057,0.13485 0.75139,0.34739 -0.6,1.6875 l -1.55625,1.5375 -0.45,-1.275 c -0.37591,-1.04554 -0.26651,-1.34364 0.6,-1.6875 0.43431,-0.17236 1.05496,-0.2917 1.55625,-0.3 z m 45.95625,1.7625 c 0.24053,-0.0148 0.29131,0.17975 0.15,0.5625 -0.30771,0.83345 -1.2,1.03876 -1.2,0.28125 0,-0.2588 0.34596,-0.58885 0.75,-0.75 0.12275,-0.049 0.21982,-0.0888 0.3,-0.0937 z M 113.1,235.425 c 7.6677,0 15.48043,0.19082 17.3625,0.43125 3.16626,0.40447 3.4125,0.52616 3.4125,1.70625 0,1.4055 -0.42756,1.47281 -4.55625,0.73125 -1.25471,-0.22537 -6.28646,-0.70382 -11.19375,-1.06875 -8.51768,-0.63339 -19.0752,-0.291 -28.48125,0.91875 -1.94157,0.24972 -2.4,0.15431 -2.4,-0.4875 0,-1.35874 10.16714,-2.23125 25.85625,-2.23125 z m -10.3125,2.8875 2.7,0 2.71875,0 -1.2,1.3125 c -1.4701,1.62649 -1.56739,1.62649 -3.0375,0 l -1.18125,-1.3125 z m 6.95625,0 1.425,1.40625 c 0.78322,0.77993 1.425,1.50307 1.425,1.59375 0,0.0907 -1.30179,0.16875 -2.8875,0.16875 l -2.8875,0 1.4625,-1.59375 1.4625,-1.575 z m 2.15625,0 2.71875,0 2.71875,0 -1.2,1.3125 c -1.4701,1.62649 -1.5674,1.62649 -3.0375,0 l -1.2,-1.3125 z m -12.825,0.075 c 0.23756,0.0154 0.02399,0.41596 -0.69375,1.425 -0.65252,0.91736 -1.34096,1.66875 -1.51875,1.66875 -0.17778,0 -0.84515,-0.60672 -1.5,-1.33125 l -1.2,-1.3125 1.81875,0 c 1.00169,0 2.21652,-0.16342 2.7,-0.35625 0.17727,-0.0707 0.31456,-0.0989 0.39375,-0.0937 z m 2.04375,0.45 1.29375,1.18125 c 0.7148,0.65185 1.37326,1.23055 1.4625,1.275 0.0892,0.0445 -1.08572,0.16205 -2.625,0.2625 l -2.8125,0.1875 1.35,-1.4625 1.33125,-1.44375 z m 17.3625,0 1.4625,1.59375 c 1.59364,1.72894 1.4338,1.8041 -2.19375,1.10625 l -1.70625,-0.31875 1.21875,-1.2 1.21875,-1.18125 z m 2.04375,0 2.3625,0 c 2.56023,0 2.89031,0.4018 1.44375,1.7625 -1.18945,1.11884 -1.19588,1.1104 -2.60625,-0.45 l -1.2,-1.3125 z m -30.61875,0.54375 c 1.15231,-0.0105 1.11781,0.0986 -0.375,1.55625 -1.14449,1.11755 -1.28295,1.14184 -1.59375,0.3 -0.37227,-1.00832 0.52024,-1.84307 1.96875,-1.85625 z m 38.79375,0.15 c 0.38908,-0.003 1.18875,0.0851 2.08125,0.24375 l 2.175,0.375 -1.25625,1.21875 -1.2375,1.21875 -1.0875,-1.425 c -0.59517,-0.78645 -1.00995,-1.49896 -0.91875,-1.59375 0.0228,-0.0237 0.11406,-0.0364 0.24375,-0.0375 z M 92.7375,240 c 0.30729,-0.0524 0.57944,0.19822 1.10625,0.69375 1.00506,0.94538 1.01745,1.03202 0.15,1.3875 -0.50614,0.20741 -1.60736,0.39214 -2.4375,0.4125 l -1.5,0.0375 1.36875,-1.425 c 0.67363,-0.70016 1.00521,-1.05387 1.3125,-1.10625 z m 34.0875,0.28125 c 0.35223,-0.0196 0.63187,0.28161 1.125,0.975 l 0.91875,1.275 -2.1,0 c -1.3676,0 -2.02228,-0.21797 -1.89375,-0.61875 0.10823,-0.33746 0.63887,-0.90806 1.18125,-1.275 0.32034,-0.21673 0.55741,-0.34452 0.76875,-0.35625 z m 6.4125,1.35 c 0.112,0.0256 0.13125,0.20884 0.13125,0.54375 0,0.98372 -0.81881,1.62886 -1.21875,0.95625 -0.15561,-0.26169 0.0536,-0.76687 0.46875,-1.125 0.30688,-0.26472 0.50675,-0.40062 0.61875,-0.375 z m -25.93125,1.2 c 8.67043,-0.01 18.31298,0.56635 23.90625,1.6125 l 1.65,0.31875 0,4.40625 c 0,3.22363 -0.15661,4.40296 -0.61875,4.35 -0.34853,-0.0399 -2.57998,-0.49841 -4.95,-1.03125 -7.15106,-1.60775 -15.23586,-2.23027 -24.3375,-1.85625 -4.60062,0.18907 -9.41456,0.53478 -10.70625,0.76875 l -2.3625,0.43125 -0.58125,-3.675 c -0.32042,-2.01665 -0.50138,-3.73262 -0.4125,-3.825 0.08887,-0.0924 2.31148,-0.46868 4.95,-0.825 3.39686,-0.45872 8.26025,-0.66924 13.4625,-0.675 z"
       inkscape:connector-curvature="0"
       style="fill:#000000" />
    <path
       d="m 124.7625,217.7625 c -2.96441,0 -5.08125,2.18756 -5.08125,5.26875 0,4.80081 5.39693,7.12545 8.6625,3.73125 3.26557,-3.3942 1.03762,-9 -3.58125,-9 z M 124.74375,219 c 2.19031,-0.0867 4.06875,1.61754 4.06875,4.0875 0,2.89079 -3.34546,4.90637 -5.925,3.5625 -2.75875,-1.43723 -2.5537,-6.05708 0.31875,-7.29375 0.52018,-0.22396 1.03204,-0.33625 1.5375,-0.35625 z"
       id="path7067"
       inkscape:connector-curvature="0"
       style="fill:#000000" />
    <use
       id="use23"
       y="-0.60000002"
       x="-20.06485"
       xlink:href="#path7067"
       width="100%"
       height="100%" />
    <path
       id="path25"
       d="m 88.0125,145.275 a 1.72276,1.76368 0 0 0 -1.59375,1.7625 1.725,1.76598 0 1 0 3.45,0 1.72276,1.76368 0 0 0 -1.85625,-1.7625 z m 0.1125,0.61875 a 1.15956,1.14318 0 0 1 1.125,1.14375 1.1625,1.14608 0 1 1 -2.325,0 1.15956,1.14318 0 0 1 1.2,-1.14375 z"
       inkscape:connector-curvature="0"
       style="fill:#000000" />
  </g>
  <comment>value has to be sqrt(21)</comment>
</svg>
